<?xml version="1.0" encoding="UTF-8" standalone="no"?>
<!DOCTYPE svg PUBLIC "-//W3C//DTD SVG 1.1//EN" "http://www.w3.org/Graphics/SVG/1.1/DTD/svg11.dtd">
<svg width="100%" height="100%" viewBox="0 0 290 104" version="1.1" xmlns="http://www.w3.org/2000/svg" xmlns:xlink="http://www.w3.org/1999/xlink" xml:space="preserve" xmlns:serif="http://www.serif.com/" style="fill-rule:evenodd;clip-rule:evenodd;stroke-linejoin:round;stroke-miterlimit:2;">
    <g transform="matrix(0.87849,0,0,0.87849,17.6184,6.31854)">
        <g>
            <rect x="-26.54" y="-27.31" width="343.07" height="158.62" style="fill:none;"/>
            <g>
                <g>
                    <path d="M62.88,2.49L62.88,36.05C62.88,53.06 51.46,71.61 33.08,78.99C14.7,71.6 3.28,53.05 3.28,36.05L3.28,2.49L62.88,2.49Z" style="fill:rgb(242,18,12);fill-rule:nonzero;"/>
                    <path id="XMLID_836_" d="M14.34,36.18L33.11,11.49L51.88,36.18L33.11,60.86L14.34,36.18Z" style="fill:white;fill-rule:nonzero;"/>
                    <path d="M31.39,39.6C31.39,45.96 32.9,53.53 33.11,54.33C33.11,54.34 33.12,54.35 33.13,54.35C33.13,54.35 33.15,54.34 33.15,54.33C33.35,53.53 34.87,45.96 34.87,39.6L34.87,38L40.47,38L40.47,38.42C40.47,39.38 41.25,40.5 42.21,40.5C43.17,40.5 43.95,39.38 43.95,38.42L43.95,38L44.37,38C45.33,38 46.45,37.22 46.45,36.26C46.45,35.3 45.33,34.52 44.37,34.52L43.95,34.52L43.95,34.1C43.95,33.14 43.17,32.02 42.21,32.02C41.25,32.02 40.47,33.14 40.47,34.1L40.47,34.52L34.87,34.52L34.87,27.97L35.29,27.97C36.25,27.97 37.37,27.19 37.37,26.23C37.37,25.27 36.25,24.49 35.29,24.49L34.87,24.49L34.87,24.07C34.87,23.11 34.09,21.99 33.13,21.99C32.17,21.99 31.39,23.11 31.39,24.07L31.39,24.49L30.97,24.49C30.01,24.49 28.89,25.27 28.89,26.23C28.89,27.19 30.01,27.97 30.97,27.97L31.39,27.97L31.39,34.52L25.79,34.52L25.79,34.1C25.79,33.14 25.01,32.02 24.05,32.02C23.09,32.02 22.31,33.14 22.31,34.1L22.31,34.52L21.89,34.52C20.93,34.52 19.81,35.3 19.81,36.26C19.81,37.22 20.93,38 21.89,38L22.31,38L22.31,38.42C22.31,39.38 23.09,40.5 24.05,40.5C25.01,40.5 25.79,39.38 25.79,38.42L25.79,38L31.39,38L31.39,39.6Z" style="fill:rgb(242,18,12);fill-rule:nonzero;"/>
                </g>
            </g>
        </g>
        <g id="XMLID_794_">
            <path id="XMLID_833_" d="M9.75,90.83L8.07,90.83L3.27,101.5L5.12,101.5L6.13,99.24L11.72,99.24L12.72,101.5L14.56,101.5L9.8,90.96L9.75,90.83ZM11.02,97.64L6.81,97.64L8.91,92.83L11.02,97.64Z" style="fill:rgb(60,16,83);fill-rule:nonzero;"/>
            <path id="XMLID_832_" d="M22.33,97.21C22.33,99.22 20.98,100.12 19.64,100.12C18.29,100.12 16.92,99.22 16.92,97.22L16.92,90.83L15.23,90.83L15.23,97.22C15.23,100.32 17.45,101.71 19.64,101.71C21.82,101.71 24.02,100.32 24.02,97.22L24.02,90.83L22.33,90.83L22.33,97.21Z" style="fill:rgb(60,16,83);fill-rule:nonzero;"/>
            <path id="XMLID_831_" d="M30.65,95.2C29.08,94.96 28.04,94.61 28.04,93.69C28.04,92.7 29.29,92.19 30.52,92.19C31.72,92.2 32.74,92.67 33.25,93.44L33.36,93.61L34.68,92.79L34.57,92.61C33.75,91.27 32.42,90.62 30.5,90.62C29.43,90.62 27.97,90.94 27.1,91.82C26.6,92.33 26.35,92.97 26.37,93.7C26.37,96.1 28.83,96.48 30.46,96.73C32.13,96.98 33.24,97.36 33.24,98.38C33.24,99.98 31.17,100.1 30.53,100.1C29.53,100.1 28.18,99.8 27.4,98.39L27.29,98.2L25.93,99.04L26.01,99.21C26.73,100.79 28.37,101.69 30.51,101.69C32.63,101.69 34.89,100.82 34.89,98.39C34.9,96.04 32.71,95.51 30.65,95.2Z" style="fill:rgb(60,16,83);fill-rule:nonzero;"/>
            <path id="XMLID_830_" d="M35.69,92.39L39.2,92.39L39.2,101.51L40.87,101.51L40.87,92.39L44.37,92.39L44.37,90.83L35.69,90.83L35.69,92.39Z" style="fill:rgb(60,16,83);fill-rule:nonzero;"/>
            <path id="XMLID_827_" d="M54.71,94.32C54.71,92.64 53.56,90.83 51.03,90.83L46.16,90.83L46.16,101.5L47.87,101.5L47.87,97.8L50.04,97.8L53.23,101.51L55.4,101.51L51.97,97.67C53.7,97.38 54.71,96.16 54.71,94.32ZM47.87,92.39L51.03,92.39C52.34,92.39 53.03,93.38 53.03,94.35C53.03,95.27 52.49,96.25 50.97,96.25L47.87,96.25L47.87,92.39Z" style="fill:rgb(60,16,83);fill-rule:nonzero;"/>
            <path id="XMLID_824_" d="M62.45,90.83L60.77,90.83L55.97,101.5L57.82,101.5L58.83,99.24L64.42,99.24L65.42,101.5L67.26,101.5L62.5,90.96L62.45,90.83ZM63.72,97.64L59.51,97.64L61.61,92.83L63.72,97.64Z" style="fill:rgb(60,16,83);fill-rule:nonzero;"/>
            <path id="XMLID_823_" d="M70.62,90.83L68.91,90.83L68.91,101.51L76.2,101.51L76.2,99.9L70.62,99.9L70.62,90.83Z" style="fill:rgb(60,16,83);fill-rule:nonzero;"/>
            <rect id="XMLID_822_" x="77.7" y="90.83" width="1.71" height="10.67" style="fill:rgb(60,16,83);"/>
            <path id="XMLID_819_" d="M87.56,90.83L85.88,90.83L81.08,101.5L82.93,101.5L83.94,99.24L89.53,99.24L90.53,101.5L92.37,101.5L87.62,90.95L87.56,90.83ZM88.83,97.64L84.62,97.64L86.72,92.83L88.83,97.64Z" style="fill:rgb(60,16,83);fill-rule:nonzero;"/>
            <path id="XMLID_818_" d="M101.2,98.31L95.23,90.83L94.03,90.83L94.03,101.51L95.72,101.51L95.72,94.05L101.69,101.51L102.88,101.51L102.88,90.83L101.2,90.83L101.2,98.31Z" style="fill:rgb(60,16,83);fill-rule:nonzero;"/>
            <path id="XMLID_817_" d="M119.01,98.96C118.29,99.67 117.25,100.09 116.23,100.09C113.44,100.09 112.41,98 112.37,96.21C112.37,94.25 113.56,92.27 116.23,92.27C117.27,92.27 118.24,92.65 118.97,93.34L119.11,93.47L120.29,92.38L120.13,92.23C119.08,91.19 117.69,90.62 116.22,90.62C114.6,90.62 113.21,91.16 112.21,92.17C111.2,93.19 110.63,94.67 110.65,96.22C110.65,98.95 112.37,101.7 116.22,101.7C117.75,101.7 119.12,101.16 120.19,100.13L120.35,99.98L119.15,98.81L119.01,98.96Z" style="fill:rgb(60,16,83);fill-rule:nonzero;"/>
            <path id="XMLID_814_" d="M127.47,90.83L125.79,90.83L120.99,101.5L122.84,101.5L123.85,99.24L129.44,99.24L130.44,101.5L132.28,101.5L127.53,90.95L127.47,90.83ZM128.74,97.64L124.53,97.64L126.63,92.83L128.74,97.64Z" style="fill:rgb(60,16,83);fill-rule:nonzero;"/>
            <path id="XMLID_813_" d="M131.83,92.39L135.34,92.39L135.34,101.51L137.01,101.51L137.01,92.39L140.51,92.39L140.51,90.83L131.83,90.83L131.83,92.39Z" style="fill:rgb(60,16,83);fill-rule:nonzero;"/>
            <path id="XMLID_812_" d="M149.45,95.27L144.01,95.27L144.01,90.83L142.3,90.83L142.3,101.51L144.01,101.51L144.01,96.88L149.45,96.88L149.45,101.51L151.13,101.51L151.13,90.83L149.45,90.83L149.45,95.27Z" style="fill:rgb(60,16,83);fill-rule:nonzero;"/>
            <path id="XMLID_809_" d="M158.52,90.63C155.31,90.63 153.07,92.92 153.07,96.2C153.07,98.94 154.75,101.71 158.51,101.71C162.23,101.71 163.92,98.85 163.92,96.2C163.92,93.52 162.23,90.63 158.52,90.63ZM158.52,100.1C155.93,100.1 154.77,98.14 154.77,96.19C154.77,94.21 155.93,92.21 158.51,92.21C161.08,92.27 162.23,94.25 162.23,96.19C162.24,98.14 161.09,100.1 158.52,100.1Z" style="fill:rgb(60,16,83);fill-rule:nonzero;"/>
            <path id="XMLID_808_" d="M167.58,90.83L165.87,90.83L165.87,101.51L173.16,101.51L173.16,99.9L167.58,99.9L167.58,90.83Z" style="fill:rgb(60,16,83);fill-rule:nonzero;"/>
            <rect id="XMLID_807_" x="174.66" y="90.83" width="1.71" height="10.67" style="fill:rgb(60,16,83);"/>
            <path id="XMLID_806_" d="M186.68,98.96C185.96,99.67 184.92,100.09 183.9,100.09C181.11,100.09 180.07,98 180.04,96.21C180.04,94.25 181.23,92.27 183.9,92.27C184.94,92.27 185.91,92.65 186.64,93.34L186.78,93.47L187.97,92.38L187.81,92.23C186.76,91.19 185.37,90.62 183.9,90.62C182.28,90.62 180.89,91.16 179.89,92.17C178.88,93.19 178.31,94.67 178.33,96.22C178.33,98.95 180.05,101.7 183.9,101.7C185.43,101.7 186.8,101.16 187.87,100.13L188.03,99.98L186.84,98.81L186.68,98.96Z" style="fill:rgb(60,16,83);fill-rule:nonzero;"/>
            <path id="XMLID_805_" d="M202.18,97.21C202.18,99.22 200.83,100.12 199.49,100.12C198.14,100.12 196.77,99.22 196.77,97.22L196.77,90.83L195.08,90.83L195.08,97.22C195.08,100.32 197.3,101.71 199.49,101.71C201.67,101.71 203.87,100.32 203.87,97.22L203.87,90.83L202.18,90.83L202.18,97.21Z" style="fill:rgb(60,16,83);fill-rule:nonzero;"/>
            <path id="XMLID_804_" d="M213.81,98.31L207.83,90.83L206.63,90.83L206.63,101.51L208.33,101.51L208.33,94.05L214.3,101.51L215.49,101.51L215.49,90.83L213.81,90.83L213.81,98.31Z" style="fill:rgb(60,16,83);fill-rule:nonzero;"/>
            <rect id="XMLID_803_" x="218.38" y="90.83" width="1.71" height="10.67" style="fill:rgb(60,16,83);"/>
            <path id="XMLID_1_" d="M223.68,90.83L221.81,90.83L226.23,101.53L227.89,101.53L232.31,90.83L230.45,90.83L227.05,99.24L223.68,90.83Z" style="fill:rgb(60,16,83);fill-rule:nonzero;"/>
            <path id="XMLID_801_" d="M235.72,96.82L241.41,96.82L241.41,95.21L235.72,95.21L235.72,92.42L241.65,92.42L241.65,90.83L234.03,90.83L234.03,101.51L241.89,101.51L241.89,99.87L235.72,99.87L235.72,96.82Z" style="fill:rgb(60,16,83);fill-rule:nonzero;"/>
            <path id="XMLID_798_" d="M252.72,94.32C252.72,92.64 251.57,90.83 249.04,90.83L244.17,90.83L244.17,101.5L245.88,101.5L245.88,97.8L248.05,97.8L251.24,101.51L253.41,101.51L249.98,97.67C251.7,97.38 252.72,96.16 252.72,94.32ZM245.87,92.39L249.03,92.39C250.34,92.39 251.03,93.38 251.03,94.35C251.03,95.27 250.49,96.25 248.97,96.25L245.87,96.25L245.87,92.39Z" style="fill:rgb(60,16,83);fill-rule:nonzero;"/>
            <path id="XMLID_797_" d="M259.07,95.2C257.51,94.96 256.46,94.61 256.46,93.69C256.46,92.7 257.71,92.19 258.94,92.19C260.14,92.2 261.16,92.67 261.67,93.44L261.78,93.61L263.1,92.79L263,92.62C262.18,91.28 260.85,90.63 258.92,90.63C257.85,90.63 256.39,90.95 255.52,91.83C255.02,92.34 254.77,92.98 254.79,93.71C254.79,96.11 257.25,96.49 258.88,96.74C260.55,96.99 261.66,97.37 261.66,98.39C261.66,99.99 259.59,100.11 258.96,100.11C257.96,100.11 256.6,99.81 255.83,98.4L255.72,98.21L254.37,99.05L254.44,99.22C255.16,100.8 256.79,101.7 258.94,101.7C261.06,101.7 263.32,100.83 263.32,98.4C263.32,96.04 261.13,95.51 259.07,95.2Z" style="fill:rgb(60,16,83);fill-rule:nonzero;"/>
            <rect id="XMLID_796_" x="265.51" y="90.83" width="1.71" height="10.67" style="fill:rgb(60,16,83);"/>
            <path d="M278.85,90.83L269,90.83L269,92.39L272.52,92.39L272.52,101.51L274.18,101.51L274.18,92.39L277.8,92.39L280.97,97.2L280.97,101.51L282.69,101.51L282.69,97.2L286.7,91.2L286.73,91.11L286.73,90.83L284.87,90.83L281.82,95.52L278.85,90.83Z" style="fill:rgb(60,16,83);fill-rule:nonzero;"/>
        </g>
        <g>
            <path id="XMLID_838_" d="M286.73,2.49L286.73,49.32C286.73,74.08 267.35,77.85 258.74,77.85C243.24,77.85 226.87,72.47 226.87,48.67L226.87,2.49L241.19,2.49L241.19,49.64C241.19,63.53 247.86,71.49 259.28,71.49C269.94,71.49 278.44,64.49 278.44,50.17L278.44,2.49L286.73,2.49Z" style="fill:rgb(60,16,83);fill-rule:nonzero;"/>
            <path id="XMLID_837_" d="M186.37,77.85C161.61,77.85 146.54,60.84 146.54,40.39C146.54,20.15 162.26,1.42 188.09,1.42C195.2,1.42 204.02,4.22 210.16,9.49C213.3,12.03 216.08,16.08 216.08,19.61C216.08,23.77 212.71,27.14 208.55,27.14C204.39,27.14 201.02,23.77 201.02,19.61C201.02,17.59 201.82,15.77 203.11,14.42C199.78,10.12 193.1,7.88 187.67,7.88C170.44,7.88 160.32,23.92 160.32,39.32C160.32,57.08 171.73,71.72 189.49,71.72C198.64,71.72 205.84,67.93 213.21,62.44L215.98,66.45C208.11,74.3 196.81,77.85 186.37,77.85Z" style="fill:rgb(60,16,83);fill-rule:nonzero;"/>
            <path d="M131.14,76.66L145.08,76.66L116.49,2.58L105.32,2.58L76.91,76.75L84.68,76.75L92.62,55.33L123.17,55.33L131.14,76.66ZM94.81,49.41L107.84,14.26L120.96,49.41L94.81,49.41Z" style="fill:rgb(60,16,83);fill-rule:nonzero;"/>
        </g>
    </g>
</svg>
