<svg width="81" height="81" viewBox="0 0 81 81" fill="none" xmlns="http://www.w3.org/2000/svg">
<circle opacity="0.9" cx="40.5" cy="40.5" r="40.5" fill="url(#paint0_linear)"/>
<path d="M61 60.5999C61 61.0417 60.6418 61.3999 60.2001 61.3999H52.2001V58.664C52.1922 56.1413 50.5059 53.9323 48.0743 53.2601L43.4 51.9886V50.7776C44.8985 49.7343 45.7942 48.0257 45.8 46.1999V44.6854C46.004 44.5921 46.1329 44.5257 46.1575 44.5159C46.429 44.3804 46.6 44.103 46.6 43.7999V38.9999L50.8872 37.3511C51.1969 37.2327 51.4016 36.9354 51.4016 36.6038C51.4016 36.2722 51.1969 35.9753 50.8872 35.8565L40.4872 31.8565C40.3024 31.7862 40.0977 31.7862 39.9129 31.8565L29.5129 35.8565C29.2051 35.9749 29.0016 36.2702 29 36.5999V40.2687L26.8344 42.4343L27.9657 43.5655L29 42.5312V43.7999H30.6V42.5312L31.6344 43.5655L32.7657 42.4343L30.6 40.2687V37.7647L33.8 38.9999V43.7999C33.7985 44.1046 33.97 44.3839 34.2426 44.5198C34.2672 44.5319 34.3961 44.596 34.6 44.6894V46.1999C34.586 48.0312 35.486 49.7491 37 50.78V51.9886L32.3231 53.2608C29.893 53.9335 28.2075 56.1421 28.2 58.664V61.3999H20.2C19.7583 61.3999 19.4 61.0417 19.4 60.5999V29.3999H41.8V27.7999H19.4V23.7999C19.4 23.3581 19.7583 22.9999 20.2 22.9999H41.8V21.3999H20.2C18.8747 21.3999 17.8 22.4745 17.8 23.7999V60.5999C17.8 61.9253 18.8747 62.9999 20.2 62.9999H60.2001C61.5254 62.9999 62.6 61.9253 62.6 60.5999V30.9999H61V60.5999ZM38.6 52.5999V51.5601C39.6426 51.8808 40.7575 51.8808 41.8 51.5601V52.5999C41.8028 52.8292 41.9043 53.046 42.0793 53.1944L40.2 54.7601L38.3208 53.1952C38.4958 53.0468 38.5977 52.8296 38.6 52.5999ZM40.2 33.4565L48.3711 36.5999L40.2 39.7433L32.029 36.5999L40.2 33.4565ZM39.9129 41.3472C40.0977 41.4175 40.3024 41.4175 40.4872 41.3472L45 39.6112V43.2909C43.493 44.0159 41.8665 44.4597 40.2 44.5999C38.5336 44.4585 36.9071 44.0147 35.4 43.2901V39.6104L39.9129 41.3472ZM36.2 46.1999V45.3413C37.477 45.8456 38.8286 46.1358 40.2 46.1999C41.5715 46.1358 42.9231 45.8456 44.2 45.3413V46.1999C44.1981 47.6292 43.4336 48.9491 42.1946 49.662C40.9555 50.3749 39.4301 50.3722 38.1938 49.655C37.8918 49.4835 37.6153 49.271 37.3711 49.0237C36.6172 48.2784 36.195 47.2604 36.2 46.1999ZM29.8 58.664C29.8059 56.8624 31.0102 55.2847 32.7465 54.8038L36.52 53.7776L39.6879 56.4175C39.9848 56.6647 40.4153 56.6647 40.7122 56.4175L43.8801 53.7776L47.6512 54.803C49.3883 55.2835 50.5934 56.8616 50.6 58.664V61.3999H48.2V58.1999H46.6V61.3999H33.8V58.1999H32.2V61.3999H29.8V58.664Z" fill="white"/>
<path d="M22.6001 24.6001H24.2001V26.2001H22.6001V24.6001Z" fill="white"/>
<path d="M25.8 24.6001H27.4V26.2001H25.8V24.6001Z" fill="white"/>
<path d="M29 24.6001H30.6V26.2001H29V24.6001Z" fill="white"/>
<path d="M61.8 15H45.8C44.4746 15 43.4 16.0746 43.4 17.4V27C43.4 28.3254 44.4746 29.4 45.8 29.4H48.2V32.6C48.2 32.9398 48.4145 33.2426 48.7352 33.3551C48.8203 33.3844 48.9098 33.3996 49 33.4C49.243 33.4 49.4731 33.2898 49.6246 33.1L52.584 29.4H61.8C63.1254 29.4 64.2 28.3254 64.2 27V17.4C64.2 16.0746 63.1254 15 61.8 15ZM62.6 27C62.6 27.4418 62.2418 27.8 61.8 27.8H52.2C51.9571 27.8 51.727 27.9102 51.5754 28.1L49.8 30.3191V28.6C49.8 28.1582 49.4418 27.8 49 27.8H45.8C45.3582 27.8 45 27.4418 45 27V17.4C45 16.9582 45.3582 16.6 45.8 16.6H61.8C62.2418 16.6 62.6 16.9582 62.6 17.4V27Z" fill="white"/>
<path d="M48.2001 18.2H59.4001V19.8H48.2001V18.2Z" fill="white"/>
<path d="M48.2001 21.3999H59.4001V22.9999H48.2001V21.3999Z" fill="white"/>
<path d="M48.2001 24.6001H59.4001V26.2001H48.2001V24.6001Z" fill="white"/>
<defs>
<linearGradient id="paint0_linear" x1="40.2985" y1="94.5" x2="9.89179" y2="18.2128" gradientUnits="userSpaceOnUse">
<stop stop-color="#E14546"/>
<stop offset="0.0001" stop-color="#CA2E2F"/>
<stop offset="1" stop-color="#D20B70"/>
</linearGradient>
</defs>
</svg>
