<svg width="81" height="81" viewBox="0 0 81 81" fill="none" xmlns="http://www.w3.org/2000/svg">
<circle opacity="0.9" cx="40.5" cy="40.5" r="40.5" fill="url(#paint0_linear)"/>
<path d="M64.2969 32.3788C64.6852 32.3788 65 32.064 65 31.6757V25.8724C65 24.0517 63.5203 22.5705 61.7015 22.5705H52.4402L41.3546 16.0959C41.1355 15.968 40.8644 15.968 40.6454 16.0959L29.5598 22.5705H20.2985C18.4797 22.5705 17 24.0517 17 25.8724V52.3109C17 54.1316 18.4797 55.6128 20.2985 55.6128H37.6777L36.276 59.7776H34.107C32.946 59.7776 32.0014 60.7221 32.0014 61.8831V61.8945C32.0014 63.0555 32.946 64 34.107 64H47.8932C49.0542 64 49.9988 63.0555 49.9988 61.8945V61.8831C49.9988 60.7221 49.0542 59.7776 47.8932 59.7776H45.7242L44.3225 55.6128H61.7017C63.5204 55.6128 65.0002 54.1316 65.0002 52.3109V34.9248C65.0002 34.5365 64.6854 34.2217 64.2971 34.2217C63.9088 34.2217 63.5939 34.5365 63.5939 34.9248V52.3109C63.5939 53.3562 62.7451 54.2066 61.7017 54.2066H20.2985C19.2552 54.2066 18.4062 53.3562 18.4062 52.3109V25.8724C18.4062 24.8271 19.2551 23.9767 20.2985 23.9767H27.152L24.7378 25.3867H20.5134C20.1251 25.3867 19.8103 25.7015 19.8103 26.0898V52.0934C19.8103 52.4817 20.1251 52.7965 20.5134 52.7965H23.3774C23.7657 52.7965 24.0806 52.4817 24.0806 52.0934C24.0806 51.7051 23.7657 51.3903 23.3774 51.3903H21.2165V26.793H24.8773L30.6207 30.1474L30.6043 39.5536C30.6039 39.804 30.7366 40.0357 30.9529 40.162L40.6455 45.8229C40.755 45.8868 40.8776 45.9188 41.0001 45.9188C41.1226 45.9188 41.2452 45.8868 41.3547 45.8229L51.0473 40.162C51.2636 40.0357 51.3963 39.804 51.3958 39.5536L51.3794 30.1474L53.511 28.9024V35.395C53.511 35.7833 53.8258 36.0981 54.2142 36.0981H57.0024C57.3907 36.0981 57.7055 35.7833 57.7055 35.395V26.793H60.7836V51.3903H26.6333C26.245 51.3903 25.9302 51.7051 25.9302 52.0934C25.9302 52.4817 26.245 52.7965 26.6333 52.7965H61.4866C61.8749 52.7965 62.1898 52.4817 62.1898 52.0934V26.0898C62.1898 25.7015 61.8749 25.3867 61.4866 25.3867H57.2622L54.848 23.9767H61.7015C62.7448 23.9767 63.5938 24.8271 63.5938 25.8724V31.6757C63.5938 32.064 63.9086 32.3788 64.2969 32.3788ZM47.8931 61.1838C48.2787 61.1838 48.5924 61.4974 48.5924 61.883V61.8944C48.5924 62.28 48.2787 62.5937 47.8931 62.5937H34.1069C33.7213 62.5937 33.4076 62.28 33.4076 61.8944V61.883C33.4076 61.4974 33.7213 61.1838 34.1069 61.1838H47.8931ZM39.1615 55.6128H42.8385L44.2403 59.7775H37.7598L39.1615 55.6128ZM56.2991 34.6919H54.9172V28.0811L56.2992 27.274V34.6919H56.2991ZM55.608 26.0491L41 34.5808L37.981 32.8175C37.6456 32.6217 37.215 32.7348 37.0192 33.07C36.8233 33.4053 36.9364 33.8359 37.2717 34.0318L40.6454 36.0021C40.755 36.0662 40.8776 36.0981 41.0001 36.0981C41.1226 36.0981 41.2452 36.0662 41.3547 36.0022L49.9745 30.9678L49.9888 39.1515L41 44.4014L32.0112 39.1516L32.0256 30.9679L34.5171 32.423C34.8522 32.6188 35.2829 32.5058 35.4789 32.1705C35.6747 31.8351 35.5617 31.4046 35.2263 31.2087L26.3921 26.0492L41 17.5173L55.608 26.0491Z" fill="white"/>
<defs>
<linearGradient id="paint0_linear" x1="40.2985" y1="94.5" x2="9.89179" y2="18.2128" gradientUnits="userSpaceOnUse">
<stop stop-color="#E14546"/>
<stop offset="0.0001" stop-color="#CA2E2F"/>
<stop offset="1" stop-color="#D20B70"/>
</linearGradient>
</defs>
</svg>
