<svg width="81" height="81" viewBox="0 0 81 81" fill="none" xmlns="http://www.w3.org/2000/svg">
<circle opacity="0.9" cx="40.5" cy="40.5" r="40.5" fill="url(#paint0_linear)"/>
<path d="M36.1291 29.1612C36.5557 29.1612 36.9033 29.508 36.9033 29.9354H38.4517C38.4517 28.6549 37.4096 27.6128 36.1291 27.6128C34.8486 27.6128 33.8065 28.6549 33.8065 29.9354H35.3549C35.3549 29.508 35.7025 29.1612 36.1291 29.1612Z" fill="white"/>
<path d="M42.3226 29.1612C42.7492 29.1612 43.0968 29.508 43.0968 29.9354H44.6452C44.6452 28.6549 43.6031 27.6128 42.3226 27.6128C41.0421 27.6128 40 28.6549 40 29.9354H41.5484C41.5484 29.508 41.896 29.1612 42.3226 29.1612Z" fill="white"/>
<path d="M43.0968 32.2581V31.4839H35.3549V32.2581C35.3549 34.3925 37.0914 36.129 39.2258 36.129C41.3603 36.129 43.0968 34.3925 43.0968 32.2581ZM37.0356 33.0323H41.4152C41.0955 33.9334 40.2346 34.5807 39.2251 34.5807C38.2155 34.5807 37.3554 33.9334 37.0356 33.0323Z" fill="white"/>
<path d="M60.2916 21.4194C58.4715 21.4194 56.9332 22.7231 56.6336 24.5185L56.3572 26.176C55.4072 26.4671 54.7097 27.3427 54.7097 28.3871V30.201C54.7097 31.2354 55.1123 32.2077 55.8431 32.9386L56.2581 33.3528V37.4939C56.2581 38.7443 55.5636 39.8684 54.4457 40.4274C53.992 40.655 53.4849 40.7742 52.9786 40.7742H43.7316L43.2214 38.2255C45.0044 37.2733 46.4057 35.7048 47.1505 33.8065H47.7419C49.4498 33.8065 50.8387 32.4175 50.8387 30.7097C50.8387 29.0018 49.4498 27.6129 47.7419 27.6129V25.6759C49.5582 24.9156 50.8387 23.121 50.8387 21.0323C50.8387 18.2575 48.5812 16 45.8065 16H36.6594C31.6712 16 27.6129 20.0575 27.6129 25.0465C27.6129 25.7858 27.7035 26.5244 27.8831 27.2413L28.2772 28.8168C27.8676 29.3417 27.6129 29.9935 27.6129 30.7097C27.6129 32.4175 29.0018 33.8065 30.7097 33.8065H31.3012C32.0459 35.7048 33.4465 37.2733 35.2302 38.2255L34.6968 40.8903L29.937 41.8418C28.1626 42.1964 26.5616 43.1711 25.4305 44.584C24.3419 45.9466 23.7419 47.656 23.7419 49.4003V59.3548C23.7419 61.9166 25.8253 64 28.3871 64H50.0645C50.9185 64 51.6129 63.3055 51.6129 62.4516V48.5161H53.3045C56.3881 48.5161 59.3223 47.1845 61.353 44.8635C63.0601 42.9141 64 40.4126 64 37.8206V25.1277C64 23.0823 62.337 21.4194 60.2916 21.4194ZM56.2581 28.3871C56.2581 27.9597 56.6057 27.6129 57.0323 27.6129H58.5807C59.0072 27.6129 59.3548 27.9597 59.3548 28.3871C59.3548 28.8145 59.0072 29.1613 58.5807 29.1613H57.8065V30.7097H58.5807C59.8612 30.7097 60.9032 29.6676 60.9032 28.3871C60.9032 27.1066 59.8612 26.0645 58.5807 26.0645H57.9458L58.161 24.7724C58.336 23.7265 59.2317 22.9677 60.2916 22.9677C61.4823 22.9677 62.4516 23.937 62.4516 25.1277V32.2581H57.3528L56.9386 31.8439C56.4996 31.4049 56.2581 30.8219 56.2581 30.201V28.3871ZM44.0521 42.3226L42.7724 44.4555L40.9631 43.7316L43.3112 42.3226H44.0521ZM49.2903 30.7097C49.2903 31.5636 48.5959 32.2581 47.7419 32.2581H47.5941C47.687 31.7548 47.7419 31.2392 47.7419 30.7097V29.1613C48.5959 29.1613 49.2903 29.8557 49.2903 30.7097ZM30.7097 32.2581C29.8557 32.2581 29.1613 31.5636 29.1613 30.7097C29.1613 29.8557 29.8557 29.1613 30.7097 29.1613V30.7097C30.7097 31.2392 30.7647 31.7548 30.8576 32.2581H30.7097ZM30.7097 26.0885V27.6129C30.3265 27.6129 29.9634 27.6919 29.6243 27.8196L29.385 26.865C29.2364 26.2712 29.1613 25.6596 29.1613 25.0465C29.1613 20.9123 32.5244 17.5484 36.6594 17.5484H45.8065C47.7272 17.5484 49.2903 19.1115 49.2903 21.0323C49.2903 22.953 47.7272 24.5161 45.8065 24.5161H45.0222C43.9608 24.5161 43.0968 23.6521 43.0968 22.5907C43.0968 21.7608 43.6263 21.0268 44.4129 20.7652L44.8898 20.6065L44.4005 19.137L43.9236 19.2965C42.503 19.7688 41.5484 21.0926 41.5484 22.5907C41.5484 22.6906 41.5693 22.785 41.5778 22.8826C40.1502 22.7401 38.7528 22.4095 37.4134 21.8738L37.113 21.753C36.5587 21.5316 35.975 21.4194 35.3788 21.4194C32.8047 21.4194 30.7097 23.5143 30.7097 26.0885ZM32.2581 30.7097V26.0885C32.2581 24.3683 33.6586 22.9677 35.3788 22.9677C35.7776 22.9677 36.1677 23.0428 36.537 23.1899L36.8374 23.3107C38.5275 23.9858 40.3004 24.3675 42.1112 24.4735C42.7306 25.4281 43.8013 26.0645 45.0222 26.0645H45.8065C45.9373 26.0645 46.065 26.0545 46.1936 26.0452V30.7097C46.1936 34.552 43.0674 37.6774 39.2258 37.6774C35.3843 37.6774 32.2581 34.552 32.2581 30.7097ZM39.2258 39.2258C40.1099 39.2258 40.9631 39.0895 41.7652 38.8387L42.2305 41.1652L39.2258 42.9683L36.2212 41.1652L36.6865 38.8387C37.4885 39.0895 38.3417 39.2258 39.2258 39.2258ZM35.2132 42.3659L37.4893 43.7316L35.6699 44.4594L34.463 42.5161L35.2132 42.3659ZM33.0323 62.4516V60.9032H50.0645V62.4516H33.0323ZM50.0645 59.3548H33.0323V48.5161H50.0645V59.3548ZM60.1887 43.8446C58.4514 45.8289 55.9422 46.9677 53.3045 46.9677H33.0323C32.1783 46.9677 31.4839 47.6622 31.4839 48.5161V57.8064H28.3871V59.3548H31.4839V62.4516H28.3871C26.6792 62.4516 25.2903 61.0627 25.2903 59.3548V49.4003C25.2903 48.0067 25.7696 46.6403 26.6397 45.5525C27.5432 44.423 28.8222 43.6441 30.2413 43.3608L32.841 42.8405L35.0398 46.3794L39.1569 44.7326L39.2258 44.7737L39.2947 44.7326L43.4219 46.3832L45.8576 42.3226H52.9786C53.7234 42.3226 54.4705 42.1461 55.1378 41.8132C56.7837 40.9902 57.8065 39.3357 57.8065 37.4947V33.8065H62.4516V37.8206C62.4516 40.0372 61.648 42.177 60.1887 43.8446Z" fill="white"/>
<path d="M41.5484 56.258C42.8289 56.258 43.871 55.2159 43.871 53.9354C43.871 52.6549 42.8289 51.6128 41.5484 51.6128C40.2679 51.6128 39.2258 52.6549 39.2258 53.9354C39.2258 55.2159 40.2679 56.258 41.5484 56.258ZM41.5484 53.1612C41.975 53.1612 42.3226 53.508 42.3226 53.9354C42.3226 54.3627 41.975 54.7096 41.5484 54.7096C41.1218 54.7096 40.7742 54.3627 40.7742 53.9354C40.7742 53.508 41.1218 53.1612 41.5484 53.1612Z" fill="white"/>
<path d="M24.4015 39.8754C25.8679 38.9046 26.8387 37.2416 26.8387 35.3549C26.8387 32.3673 24.4077 29.9355 21.4194 29.9355C18.431 29.9355 16 32.3673 16 35.3549C16 37.2416 16.9708 38.9046 18.4372 39.8754L18.9876 42.6269C19.1316 43.3477 19.7703 43.871 20.5058 43.871H22.3329C23.0684 43.871 23.7071 43.3477 23.8511 42.6269L24.4015 39.8754ZM17.5484 35.3549C17.5484 33.2204 19.2849 31.4839 21.4194 31.4839C23.5538 31.4839 25.2903 33.2204 25.2903 35.3549C25.2903 37.2238 23.9579 38.7877 22.1935 39.1477V37.535C23.0924 37.2145 23.7419 36.3629 23.7419 35.3549C23.7419 34.0744 22.6999 33.0323 21.4194 33.0323C20.1388 33.0323 19.0968 34.0744 19.0968 35.3549C19.0968 36.3629 19.7463 37.2145 20.6452 37.535V39.1477C18.8808 38.7877 17.5484 37.2238 17.5484 35.3549ZM20.6452 35.3549C20.6452 34.9275 20.9928 34.5807 21.4194 34.5807C21.8459 34.5807 22.1935 34.9275 22.1935 35.3549C22.1935 35.7823 21.8459 36.1291 21.4194 36.1291C20.9928 36.1291 20.6452 35.7823 20.6452 35.3549ZM20.5058 42.3226L20.1652 40.6217C20.5685 40.7177 20.9874 40.7743 21.4194 40.7743C21.8514 40.7743 22.2702 40.7177 22.6735 40.6217L22.3329 42.3226H20.5058Z" fill="white"/>
<path d="M20.6451 25.2903H22.1935V28.3871H20.6451V25.2903Z" fill="white"/>
<path d="M16.8567 26.3523L18.2871 25.7594L19.4732 28.6209L18.0428 29.2138L16.8567 26.3523Z" fill="white"/>
<path d="M23.3738 28.6221L24.5599 25.7606L25.9902 26.3535L24.8042 29.215L23.3738 28.6221Z" fill="white"/>
<defs>
<linearGradient id="paint0_linear" x1="40.2985" y1="94.5" x2="9.89179" y2="18.2128" gradientUnits="userSpaceOnUse">
<stop stop-color="#E14546"/>
<stop offset="0.0001" stop-color="#CA2E2F"/>
<stop offset="1" stop-color="#D20B70"/>
</linearGradient>
</defs>
</svg>
